<svg width="309" height="202" viewBox="0 0 309 202" fill="none" xmlns="http://www.w3.org/2000/svg">
<g clip-path="url(#clip0_8_2)">
<path d="M74.494 163.795L65.119 170.483L63.5773 168.316L67.4315 165.566L64.3898 161.316L60.5356 164.066L58.9731 161.899L68.3481 155.212L69.9106 157.379L66.2231 160.004L69.2648 164.254L72.9523 161.629L74.494 163.795Z" fill="#181B13"/>
<path d="M79.1195 182.073L77.6195 183.614L71.2028 177.406L79.2237 169.135L85.4737 175.177L83.9737 176.718L79.6403 172.51L77.9112 174.302L81.7445 178.031L80.307 179.51L76.4737 175.781L74.6195 177.698L79.1195 182.073Z" fill="#181B13"/>
<path d="M91.9575 191.21L87.52 188.21L85.2908 189.689L83.02 188.168L93.6866 181.46L95.895 182.939L93.7491 195.377L91.4366 193.814L91.9575 191.21ZM92.3741 189.043L93.3325 184.377L89.3533 187.002L92.3741 189.043Z" fill="#181B13"/>
<path d="M105.237 188.336L107.675 189.419L103.862 197.961L109.133 200.315L108.258 202.294L100.55 198.857L105.237 188.336Z" fill="#181B13"/>
<path d="M120.401 196.388L116.838 195.451L117.401 193.367L127.109 195.93L126.547 198.013L122.984 197.076L120.588 206.117L118.005 205.43L120.401 196.388Z" fill="#181B13"/>
<path d="M143.412 197.819L142.453 209.298L139.787 209.09L140.183 204.382L134.974 203.944L134.578 208.652L131.933 208.423L132.891 196.944L135.537 197.173L135.162 201.694L140.37 202.132L140.745 197.611L143.412 197.819Z" fill="#181B13"/>
<path d="M156.76 204.517L157.156 208.579L154.51 208.85L154.114 204.767L148.927 197.829L151.739 197.558L155.344 202.35L157.864 196.933L160.469 196.683L156.76 204.517Z" fill="#181B13"/>
<path d="M178.396 193.951L179.5 196.785L184.458 194.847L185.229 196.847L180.271 198.785L181.791 202.68L179.312 203.639L175.146 192.91L183.229 189.764L184 191.764L178.396 193.951Z" fill="#181B13"/>
<path d="M199.703 194.091C198.688 194.716 197.641 195.065 196.558 195.133C195.474 195.206 194.464 194.998 193.537 194.508C192.594 194.024 191.823 193.3 191.224 192.341C190.63 191.373 190.328 190.362 190.328 189.321C190.318 188.268 190.578 187.268 191.12 186.321C191.662 185.378 192.443 184.591 193.453 183.966C194.479 183.341 195.537 183.003 196.62 182.946C197.703 182.878 198.709 183.081 199.641 183.55C200.584 184.024 201.354 184.748 201.953 185.716C202.547 186.675 202.849 187.69 202.849 188.758C202.86 189.815 202.599 190.815 202.058 191.758C201.516 192.69 200.729 193.466 199.703 194.091ZM198.516 192.154C199.099 191.81 199.537 191.357 199.828 190.8C200.13 190.248 200.271 189.649 200.245 189.008C200.229 188.357 200.037 187.732 199.662 187.133C199.287 186.524 198.813 186.065 198.245 185.758C197.688 185.456 197.089 185.315 196.453 185.341C195.828 185.357 195.224 185.539 194.641 185.883C194.068 186.248 193.636 186.706 193.328 187.258C193.026 187.815 192.886 188.414 192.912 189.05C192.943 189.69 193.141 190.315 193.516 190.925C193.891 191.524 194.354 191.982 194.912 192.3C195.464 192.607 196.063 192.753 196.703 192.737C197.339 192.711 197.943 192.518 198.516 192.154Z" fill="#181B13"/>
<path d="M215.955 181.696C215.08 182.503 214.122 183.05 213.08 183.342C212.038 183.623 211.007 183.613 209.997 183.321C208.986 183.029 208.096 182.467 207.33 181.633C206.554 180.8 206.054 179.873 205.83 178.842C205.611 177.816 205.674 176.79 206.018 175.758C206.351 174.717 206.955 173.795 207.83 172.988C208.705 172.17 209.674 171.623 210.726 171.342C211.778 171.066 212.814 171.071 213.83 171.363C214.856 171.644 215.757 172.196 216.538 173.029C217.299 173.863 217.788 174.8 217.997 175.842C218.215 176.873 218.148 177.899 217.788 178.925C217.439 179.956 216.83 180.878 215.955 181.696ZM214.413 180.029C214.913 179.56 215.252 179.024 215.434 178.425C215.627 177.816 215.648 177.206 215.497 176.592C215.34 175.982 215.028 175.415 214.559 174.883C214.059 174.357 213.502 173.998 212.893 173.8C212.278 173.607 211.669 173.587 211.059 173.738C210.45 173.878 209.893 174.185 209.393 174.654C208.908 175.113 208.57 175.649 208.372 176.258C208.179 176.857 208.158 177.467 208.309 178.092C208.465 178.706 208.788 179.274 209.288 179.8C209.762 180.331 210.304 180.691 210.913 180.883C211.523 181.066 212.132 181.087 212.747 180.946C213.372 180.795 213.924 180.488 214.413 180.029Z" fill="#181B13"/>
<path d="M216.689 164.007L219.751 159.757C220.475 158.746 221.309 157.986 222.251 157.486C223.199 156.986 224.178 156.772 225.189 156.84C226.199 156.913 227.178 157.278 228.126 157.944C229.043 158.611 229.694 159.418 230.085 160.361C230.486 161.309 230.605 162.309 230.439 163.361C230.272 164.418 229.824 165.455 229.105 166.465L226.043 170.715L216.689 164.007ZM227.251 165.319C227.918 164.392 228.189 163.46 228.064 162.528C227.949 161.585 227.449 160.793 226.564 160.153C225.658 159.517 224.751 159.293 223.835 159.486C222.908 159.668 222.105 160.226 221.439 161.153L220.022 163.111L225.835 167.278L227.251 165.319Z" fill="#181B13"/>
<path d="M58.9845 49.9019L68.3178 56.6727L67.047 58.4435L58.0053 59.006L63.672 63.1102L62.1303 65.2352L52.797 58.4644L54.0678 56.6935L63.1095 56.1727L57.4428 52.0477L58.9845 49.9019Z" fill="#181B13"/>
<path d="M77.6738 43.3936L73.7988 47.0811L74.7363 49.5811L72.7571 51.4561L68.5488 39.5811L70.4863 37.7478L82.1321 42.5603L80.1113 44.477L77.6738 43.3936ZM75.6321 42.4978L71.2988 40.5603L72.9863 45.0186L75.6321 42.4978Z" fill="#181B13"/>
<path d="M84.4729 29.3431L81.3895 31.3848L80.1812 29.5723L88.5354 24.0098L89.7437 25.8223L86.6812 27.8639L91.8687 35.6348L89.6604 37.1139L84.4729 29.3431Z" fill="#181B13"/>
<path d="M105.933 28.2422C104.433 28.9089 103.079 29.013 101.87 28.5547C100.672 28.0859 99.74 27.0859 99.0577 25.5547L96.4327 19.638L98.8702 18.5755L101.454 24.388C102.287 26.2786 103.48 26.8776 105.037 26.1797C105.797 25.8359 106.276 25.3464 106.474 24.7214C106.683 24.0964 106.568 23.2943 106.141 22.3047L103.558 16.4922L105.974 15.4297L108.599 21.3464C109.276 22.8776 109.381 24.2422 108.912 25.4505C108.438 26.6484 107.443 27.5755 105.933 28.2422Z" fill="#181B13"/>
<path d="M125.621 21.6331L122.704 19.0289L122.6 19.0706L120.35 19.6122L121.1 22.7372L118.496 23.3622L115.808 12.1539L120.663 10.9872C121.647 10.7529 122.543 10.7112 123.35 10.8622C124.168 11.0185 124.84 11.3518 125.371 11.8622C125.913 12.3779 126.288 13.0601 126.496 13.9039C126.689 14.7268 126.663 15.4872 126.413 16.1956C126.163 16.8935 125.694 17.482 125.017 17.9664L128.413 20.9664L125.621 21.6331ZM123.871 14.5289C123.715 13.8935 123.392 13.456 122.892 13.2164C122.402 12.9664 121.777 12.9351 121.017 13.1122L118.913 13.6331L119.85 17.5497L121.954 17.0289C122.715 16.8518 123.256 16.5393 123.579 16.0914C123.913 15.6487 124.006 15.1279 123.871 14.5289Z" fill="#181B13"/>
<path d="M143.318 17.0431L137.984 17.3348L137.109 19.8556L134.38 20.0015L138.859 8.23063L141.484 8.06396L147.276 19.2723L144.484 19.439L143.318 17.0431ZM142.359 15.0431L140.318 10.7723L138.734 15.2515L142.359 15.0431Z" fill="#181B13"/>
<path d="M155.487 8.26978L158.133 8.58228L157.091 17.8739L162.82 18.5198L162.57 20.6656L154.195 19.7073L155.487 8.26978Z" fill="#181B13"/>
<path d="M185.863 17.426L184.738 20.2385L189.696 22.1969L188.905 24.1969L183.946 22.2385L182.405 26.1344L179.926 25.1344L184.176 14.426L192.259 17.6344L191.467 19.6344L185.863 17.426Z" fill="#181B13"/>
<path d="M199.352 34.7721C198.336 34.1314 197.56 33.3398 197.018 32.3971C196.477 31.4648 196.211 30.4752 196.227 29.4179C196.237 28.3502 196.544 27.345 197.143 26.3971C197.737 25.4283 198.508 24.7044 199.456 24.2304C200.398 23.7616 201.414 23.5585 202.497 23.6262C203.581 23.6835 204.628 24.0325 205.643 24.6679C206.654 25.2929 207.435 26.0794 207.977 27.0221C208.518 27.97 208.779 28.97 208.768 30.0221C208.753 31.0741 208.445 32.0898 207.852 33.0637C207.253 34.0064 206.482 34.7148 205.539 35.1887C204.591 35.6731 203.581 35.8814 202.497 35.8137C201.414 35.7408 200.362 35.3971 199.352 34.7721ZM200.56 32.8346C201.128 33.1939 201.732 33.3814 202.372 33.3971C203.008 33.4231 203.607 33.2825 204.164 32.9804C204.716 32.6731 205.185 32.22 205.56 31.6262C205.935 31.0012 206.133 30.371 206.164 29.7304C206.19 29.095 206.049 28.5012 205.747 27.9596C205.44 27.4075 205.003 26.9491 204.435 26.5846C203.852 26.2252 203.237 26.0325 202.602 26.0012C201.977 25.9752 201.383 26.1158 200.831 26.4179C200.273 26.7252 199.81 27.1887 199.435 27.8137C199.06 28.4127 198.857 29.0325 198.831 29.6679C198.799 30.3085 198.935 30.9075 199.227 31.4596C199.529 32.0116 199.977 32.47 200.56 32.8346Z" fill="#181B13"/>
<path d="M214.762 46.5458C213.887 45.7228 213.267 44.7958 212.908 43.7541C212.559 42.7228 212.497 41.6968 212.721 40.6708C212.939 39.6447 213.434 38.7228 214.2 37.8999C214.976 37.0666 215.872 36.5041 216.887 36.2124C217.898 35.9208 218.929 35.9156 219.971 36.1916C221.023 36.4728 221.991 37.0197 222.866 37.8374C223.741 38.6604 224.351 39.5822 224.7 40.6083C225.059 41.6395 225.127 42.6604 224.908 43.6916C224.684 44.7176 224.184 45.6499 223.408 46.4833C222.642 47.301 221.752 47.8583 220.741 48.1499C219.726 48.4416 218.689 48.4468 217.637 48.1708C216.596 47.9051 215.637 47.3635 214.762 46.5458ZM216.304 44.8791C216.804 45.3374 217.356 45.6343 217.971 45.7749C218.58 45.926 219.184 45.9051 219.783 45.7124C220.392 45.5145 220.939 45.1604 221.429 44.6499C221.929 44.1187 222.247 43.5458 222.387 42.9208C222.538 42.2958 222.523 41.6812 222.346 41.0874C222.163 40.4781 221.825 39.9416 221.325 39.4833C220.825 39.0249 220.262 38.7281 219.637 38.5874C219.023 38.4364 218.413 38.4572 217.804 38.6499C217.205 38.8478 216.658 39.2072 216.158 39.7333C215.668 40.2489 215.351 40.8166 215.2 41.4416C215.059 42.0666 215.08 42.676 215.262 43.2749C215.455 43.8843 215.804 44.4208 216.304 44.8791Z" fill="#181B13"/>
<path d="M233.799 49.6733L236.862 53.9025C237.596 54.9181 238.049 55.9494 238.216 57.0067C238.393 58.0588 238.289 59.0588 237.903 60.0067C237.528 60.9494 236.872 61.7619 235.945 62.4442C235.028 63.1108 234.054 63.4754 233.028 63.5483C232.013 63.6317 231.028 63.4233 230.07 62.9233C229.122 62.4338 228.284 61.6838 227.549 60.6733L224.487 56.4442L233.799 49.6733ZM229.237 59.2775C229.914 60.2046 230.716 60.7619 231.633 60.9442C232.549 61.1213 233.45 60.8921 234.341 60.2567C235.226 59.6004 235.726 58.8088 235.841 57.8817C235.966 56.9494 235.685 56.0171 235.008 55.09L233.591 53.1317L227.82 57.3192L229.237 59.2775Z" fill="#181B13"/>
<mask id="mask0_8_2" style="mask-type:luminance" maskUnits="userSpaceOnUse" x="84" y="148" width="91" height="38">
<path d="M84 148.333H174.667V185.307H84V148.333Z" fill="white"/>
</mask>
<g mask="url(#mask0_8_2)">
<path fill-rule="evenodd" clip-rule="evenodd" d="M173.677 180.198C170.24 175.49 166.323 171.224 161.927 167.411C157.526 163.594 152.76 160.323 147.625 157.594C145.214 156.323 142.745 155.177 140.214 154.167C137.682 153.156 135.109 152.286 132.484 151.552C129.865 150.818 127.208 150.224 124.521 149.771C121.839 149.323 119.135 149.016 116.417 148.854C113.703 148.693 110.984 148.677 108.26 148.802C105.542 148.932 102.839 149.208 100.146 149.625C97.4583 150.042 94.7969 150.604 92.1667 151.307C89.5365 152.01 86.9479 152.849 84.4062 153.828C85.6354 155.516 86.9375 157.151 88.3021 158.734C89.6667 160.318 91.0937 161.844 92.5833 163.307C94.0729 164.771 95.6198 166.177 97.224 167.516C98.8281 168.854 100.479 170.125 102.188 171.328C103.891 172.531 105.646 173.661 107.443 174.719C109.24 175.781 111.078 176.766 112.953 177.672C114.833 178.583 116.745 179.411 118.688 180.167C120.635 180.917 122.604 181.589 124.604 182.177C126.604 182.771 128.625 183.276 130.661 183.703C132.703 184.125 134.76 184.469 136.828 184.724C138.896 184.979 140.969 185.151 143.052 185.24C145.135 185.328 147.214 185.328 149.297 185.245C151.38 185.161 153.453 184.99 155.521 184.734C157.594 184.479 159.646 184.141 161.688 183.719C163.729 183.297 165.75 182.792 167.75 182.203C169.75 181.615 171.719 180.948 173.667 180.198H173.677Z" fill="#80C244"/>
</g>
<path fill-rule="evenodd" clip-rule="evenodd" d="M173.641 180.141V180.198C179.823 177.792 185.599 174.641 190.974 170.729C196.344 166.823 201.135 162.292 205.339 157.141C201.135 155.463 196.818 154.172 192.385 153.26C187.958 152.349 183.479 151.833 178.958 151.719C174.437 151.604 169.943 151.885 165.474 152.568C161 153.25 156.625 154.318 152.339 155.781C161.167 162.375 168.266 170.495 173.641 180.141Z" fill="#80C244"/>
<mask id="mask1_8_2" style="mask-type:luminance" maskUnits="userSpaceOnUse" x="86" y="157" width="61" height="29">
<path d="M86.6667 157.667H146.667V185.307H86.6667V157.667Z" fill="white"/>
</mask>
<g mask="url(#mask1_8_2)">
<path fill-rule="evenodd" clip-rule="evenodd" d="M145.714 185.297C143.932 183.177 142.047 181.161 140.052 179.245C138.057 177.333 135.969 175.531 133.776 173.849C131.589 172.161 129.318 170.599 126.958 169.161C124.604 167.719 122.177 166.411 119.677 165.24C117.182 164.062 114.63 163.026 112.021 162.13C109.411 161.234 106.76 160.479 104.073 159.875C101.38 159.266 98.6667 158.802 95.9271 158.49C93.1875 158.177 90.4375 158.016 87.6823 158L88.1719 158.578C92.8698 159.146 97.4792 160.141 101.995 161.568C106.51 162.995 110.859 164.828 115.036 167.068C119.214 169.302 123.146 171.911 126.844 174.885C130.542 177.859 133.932 181.146 137.021 184.755C137.333 184.755 137.651 184.833 137.979 184.854C138.307 184.87 138.766 184.948 139.172 184.979C140.901 185.13 142.646 185.24 144.417 185.266C144.844 185.266 145.276 185.266 145.714 185.266V185.297Z" fill="white"/>
</g>
<mask id="mask2_8_2" style="mask-type:luminance" maskUnits="userSpaceOnUse" x="100" y="153" width="67" height="33">
<path d="M100 153.667H166.667V185.307H100V153.667Z" fill="white"/>
</mask>
<g mask="url(#mask2_8_2)">
<path fill-rule="evenodd" clip-rule="evenodd" d="M101.109 154.078C103.891 154.214 106.651 154.505 109.396 154.943C112.146 155.385 114.859 155.974 117.542 156.708C120.224 157.448 122.859 158.328 125.448 159.354C128.031 160.38 130.557 161.547 133.021 162.849C135.479 164.156 137.865 165.589 140.167 167.151C142.474 168.719 144.688 170.406 146.807 172.214C148.932 174.021 150.948 175.938 152.865 177.969C154.776 179.995 156.573 182.125 158.26 184.349C160.661 183.974 163.063 183.469 165.339 182.87C163.552 180.62 161.646 178.479 159.62 176.448C157.594 174.411 155.458 172.5 153.219 170.703C150.979 168.911 148.646 167.25 146.219 165.719C143.797 164.188 141.292 162.802 138.714 161.552C136.13 160.307 133.49 159.208 130.786 158.26C128.078 157.313 125.333 156.521 122.542 155.88C119.75 155.245 116.927 154.766 114.083 154.448C111.24 154.13 108.385 153.969 105.521 153.974C104.042 153.974 102.573 153.974 101.109 154.078Z" fill="white"/>
</g>
<path fill-rule="evenodd" clip-rule="evenodd" d="M162.938 165.313C170.615 160.964 178.802 158.047 187.49 156.562C178.016 156.807 168.906 158.771 160.161 162.443C161.109 163.37 162.031 164.328 162.938 165.313Z" fill="white"/>
<path fill-rule="evenodd" clip-rule="evenodd" d="M198.526 162.365C193.063 162.51 187.672 163.24 182.365 164.547C177.052 165.859 171.943 167.724 167.031 170.141C167.99 171.312 168.823 172.516 169.672 173.734C178.505 167.932 188.125 164.146 198.526 162.365Z" fill="white"/>
<mask id="mask3_8_2" style="mask-type:luminance" maskUnits="userSpaceOnUse" x="77" y="31" width="132" height="43">
<path d="M77.9062 31.3074H208.906V73.6667H77.9062V31.3074Z" fill="white"/>
</mask>
<g mask="url(#mask3_8_2)">
<path fill-rule="evenodd" clip-rule="evenodd" d="M146.969 69.495C168.672 64.4377 186.568 53.5783 208.635 63.7033C206.891 61.2293 205.01 58.8752 202.984 56.6252C200.964 54.3804 198.823 52.2606 196.552 50.2658C194.281 48.2762 191.901 46.4272 189.417 44.7137C186.927 43.0054 184.349 41.4481 181.677 40.047C179.005 38.646 176.266 37.4064 173.448 36.3283C170.63 35.2502 167.76 34.3439 164.839 33.6095C161.917 32.87 158.964 32.3127 155.974 31.9272C152.984 31.5418 149.984 31.3335 146.969 31.3075H146.182C142.693 31.3022 139.219 31.5418 135.755 32.021C132.297 32.495 128.885 33.2033 125.526 34.1512C122.161 35.0991 118.88 36.2658 115.677 37.6668C112.474 39.0627 109.38 40.672 106.396 42.495C103.411 44.3179 100.563 46.3335 97.8542 48.547C95.1459 50.7658 92.599 53.1512 90.2136 55.7189C87.8281 58.2814 85.6302 60.995 83.6146 63.8647C81.599 66.7293 79.7865 69.7241 78.1823 72.8387C78.1823 72.8387 84.9063 63.3179 96.9688 65.172C104.052 58.5835 119.188 47.8908 144.885 45.0783C144.885 45.0783 118.479 53.5522 105.625 67.8752C121.531 73.3491 134.859 72.3283 146.969 69.495Z" fill="#80C244"/>
</g>
<path fill-rule="evenodd" clip-rule="evenodd" d="M99.3125 53.5208C102.547 50.6822 106.005 48.1614 109.688 45.953C113.375 43.7447 117.229 41.8853 121.25 40.3801C125.266 38.8697 129.391 37.7395 133.615 36.9843C137.839 36.2239 142.094 35.8541 146.385 35.8749C153.292 35.8437 160.063 36.802 166.698 38.7395C173.328 40.677 179.552 43.526 185.37 47.2708C182.62 45.0624 179.703 43.0937 176.63 41.3697C173.552 39.651 170.359 38.1926 167.042 37.0051C163.724 35.8176 160.333 34.9166 156.865 34.2968C153.401 33.677 149.906 33.3489 146.385 33.3176H145.693C141.344 33.3176 137.047 33.7603 132.786 34.6458C128.531 35.5364 124.411 36.8489 120.422 38.5833C116.432 40.3228 112.661 42.4478 109.104 44.9635C105.552 47.4791 102.286 50.3333 99.3125 53.5208Z" fill="white"/>
<path fill-rule="evenodd" clip-rule="evenodd" d="M112.266 66.6354C119.766 60.7656 128.036 56.3542 137.078 53.4063C140.318 52.3229 143.609 51.4219 146.953 50.7031C143.672 50.9063 140.438 51.401 137.25 52.1927C134.063 52.9844 130.969 54.0573 127.974 55.4115C124.974 56.7604 122.125 58.375 119.417 60.2448C116.708 62.1146 114.188 64.2135 111.859 66.5417L112.266 66.6354Z" fill="white"/>
<path d="M16.2485 128.194C16.7901 128.261 17.2589 128.058 17.3943 127.522L21.436 112.428L32.5506 111.418C33.0245 111.355 33.4256 111.017 33.4256 110.543C33.4256 107.511 30.462 105.355 26.6235 105.761L23.0506 106.168L27.837 88.2457L28.0401 87.3707C31.2016 86.9644 34.7745 86.5634 36.7276 86.4957L41.0401 86.3603C41.7797 86.3603 42.2537 85.7561 42.0506 85.0113C41.311 82.454 39.7589 79.9592 36.5245 79.9592C33.1599 79.9592 30.462 81.0374 24.061 81.0374H22.2433L20.0193 80.9019C19.2797 80.7665 18.6756 81.3082 18.811 82.0478C19.0766 83.5999 19.686 85.4853 20.7641 86.6988L11.6026 121.121C10.7276 124.423 12.5454 127.72 16.2485 128.194Z" fill="#181B13"/>
<path d="M36.4563 131.964C36.7271 131.964 36.9979 131.631 37.1334 131.225L46.4302 100.98L50.2688 100.303C51.2792 100.105 51.9511 100.845 51.6802 101.855L48.3156 113.037C45.3521 122.803 47.6386 129.272 53.9719 129.272C60.6438 129.272 64.2115 124.756 66.5709 116.605C66.9719 115.194 66.5031 114.115 65.0188 113.173C64.8156 113.037 64.55 113.105 64.4823 113.376C61.5865 122.871 58.4875 123.678 56.3313 123.678C53.6334 123.678 53.4354 121.725 54.8469 116.605L58.2844 103.876C60.1021 97.0061 58.9563 94.5113 55.524 94.1728C52.1542 94.1728 47.2375 97.3394 46.4302 97.4749C47.8417 96.0582 49.3938 89.2561 46.024 89.2561C43.0604 89.2561 41.6438 91.2769 40.7688 93.9749C40.0292 96.1936 39.7584 99.0269 41.5084 101.381L33.5604 123.678C31.8104 128.6 33.6959 131.631 36.4563 131.964Z" fill="#181B13"/>
<path d="M93.5148 113.173C93.3117 113.038 93.0409 113.105 92.9784 113.439C90.2804 122.871 84.8221 123.678 79.9731 123.678C75.5981 123.678 72.1606 122.199 71.619 117.48C72.0929 117.616 72.6294 117.683 73.2388 117.819C78.494 118.761 84.4211 116.069 88.2596 108.256C91.9002 100.845 89.3377 93.8396 82.6034 94.1052C75.5981 92.2875 68.5877 96.0583 65.2231 108.522C60.1034 127.386 72.8325 129.272 77.619 129.272C87.4523 129.272 92.7752 124.288 95.0617 116.605C95.4679 115.194 94.9992 114.116 93.5148 113.173ZM79.6398 97.5427C83.8117 98.4177 84.2179 100.98 82.1971 106.032C79.9731 110.746 78.2909 113.173 71.8898 112.699C72.0929 111.621 72.3638 110.475 72.6971 109.267C74.8534 101.923 76.5409 97.8813 79.6398 97.5427Z" fill="#181B13"/>
<path d="M120.525 113.173C120.327 113.037 120.056 113.105 119.988 113.376C117.832 120.313 113.119 123.548 109.212 124.49C110.691 122.47 112.108 119.506 112.441 113.98C112.645 109.871 112.244 102.595 109.212 97.2717C110.353 95.7926 110.962 94.3082 111.233 92.9644C111.702 90.6051 110.285 89.928 107.999 89.928C105.572 89.928 103.957 91.6155 103.082 94.1051C102.004 97.204 99.1029 102.126 92.2331 114.251C92.1654 113.506 92.1654 112.767 92.0977 112.027C92.03 111.418 91.5612 110.949 91.0196 111.017C88.6654 111.418 86.7748 113.037 86.7748 116.605C86.7748 123.881 92.3685 129.204 102.473 129.204C111.233 129.204 118.639 127.115 122.077 116.605C122.483 115.194 122.009 114.115 120.525 113.173ZM98.905 125.23C95.806 125.23 94.1862 123.548 93.3112 120.714L104.561 99.9019C108.738 110.746 103.822 125.23 98.905 125.23Z" fill="#181B13"/>
<path d="M151.985 113.173C151.782 113.037 151.516 113.105 151.449 113.376C148.548 122.871 145.449 123.678 143.298 123.678C140.6 123.678 140.396 121.725 141.813 116.605L145.251 103.876C147.136 96.8707 145.855 94.4437 142.287 94.1728C138.178 92.4905 134.605 93.9072 132.115 96.5999L135.277 85.2145C136.225 81.7145 134.001 78.5478 130.495 78.0739C130.027 78.0062 129.62 78.3447 129.485 78.7457L117.495 122.063C116.553 125.501 118.574 128.6 122.277 129.204C122.751 129.272 123.152 129.001 123.287 128.464L127.329 113.845C130.495 103.808 133.594 99.0947 138.178 98.4176C138.985 98.2822 139.521 99.0947 139.256 99.902L135.277 113.037C131.37 125.902 133.73 129.272 140.938 129.272C147.605 129.272 151.042 124.287 153.537 116.605C153.938 115.194 153.469 114.048 151.985 113.173Z" fill="#181B13"/>
<path d="M172.664 128.194C173.206 128.261 173.675 128.058 173.81 127.522L177.852 112.428L188.966 111.418C189.44 111.355 189.841 111.017 189.841 110.543C189.841 107.511 186.878 105.355 183.039 105.761L179.466 106.168L184.253 88.2457L184.456 87.3707C187.617 86.9644 191.19 86.5634 193.143 86.4957L197.456 86.3603C198.195 86.3603 198.669 85.7561 198.466 85.0113C197.727 82.454 196.175 79.9592 192.94 79.9592C189.576 79.9592 186.878 81.0374 180.477 81.0374H178.659L176.435 80.9019C175.695 80.7665 175.091 81.3082 175.227 82.0478C175.492 83.5999 176.102 85.4853 177.18 86.6988L168.018 121.121C167.143 124.423 168.961 127.72 172.664 128.194Z" fill="#181B13"/>
<path d="M204.528 129.136C212.476 129.069 216.518 123.277 219.684 112.496C223.257 100.371 218.674 90.876 210.117 93.9072C202.372 93.2978 197.252 99.902 194.221 110.006C190.247 123.209 194.356 130.819 204.528 129.136ZM202.643 125.636C198.934 123.881 199.476 117.35 201.429 110.813C203.987 102.324 205.742 98.0166 208.908 97.5426C214.835 97.6103 214.497 105.225 212.476 111.688C209.039 122.735 207.018 126.709 202.643 125.636Z" fill="#181B13"/>
<path d="M234.1 129.136C242.048 129.069 246.09 123.277 249.257 112.496C252.829 100.371 248.246 90.876 239.689 93.9072C231.944 93.2978 226.824 99.902 223.793 110.006C219.819 123.209 223.928 130.819 234.1 129.136ZM232.215 125.636C228.507 123.881 229.048 117.35 231.001 110.813C233.559 102.324 235.314 98.0166 238.48 97.5426C244.408 97.6103 244.069 105.225 242.048 111.688C238.611 122.735 236.59 126.709 232.215 125.636Z" fill="#181B13"/>
<path d="M285.902 113.173C285.698 113.037 285.433 113.105 285.365 113.376C282.464 122.871 279.365 123.678 277.214 123.678C274.516 123.678 274.251 121.793 275.73 116.605L283.881 87.7092C285.969 80.3655 284.355 78.0061 280.313 78.0061C279.907 78.0061 279.568 78.2769 279.433 78.6832L274.183 96.3967C272.969 94.3759 271.084 93.5009 269.261 93.9071C261.516 93.2978 256.396 99.9019 253.365 110.006C249.256 123.746 254.105 132.168 263.672 128.194C264.954 128.261 266.297 127.048 267.511 125.23C268.183 128.329 270.678 129.272 274.855 129.272C281.521 129.272 284.959 124.287 287.454 116.605C287.855 115.194 287.386 114.115 285.902 113.173ZM261.787 124.756C258.079 123.006 258.62 117.35 260.573 110.813C263.131 102.324 266.636 98.2144 269.667 98.2144C272.162 98.2144 272.563 100.642 271.688 104.615L269.193 113.037C268.928 113.98 268.657 114.855 268.454 115.662C267.172 120.714 264.141 125.365 261.787 124.756Z" fill="#181B13"/>
</g>
<defs>
<clipPath id="clip0_8_2">
<rect width="309" height="202" fill="white"/>
</clipPath>
</defs>
</svg>
